<mxfile host="Electron" modified="2023-10-11T06:27:34.889Z" agent="Mozilla/5.0 (Windows NT 10.0; Win64; x64) AppleWebKit/537.36 (KHTML, like Gecko) draw.io/22.0.2 Chrome/114.0.5735.289 Electron/25.8.4 Safari/537.36" etag="AP5aXsLxz9ygDoHAsqKS" version="22.0.2" type="device">
  <diagram name="第 1 页" id="SKevdN_SVySVPFdct8Fb">
    <mxGraphModel dx="1434" dy="884" grid="1" gridSize="10" guides="1" tooltips="1" connect="1" arrows="1" fold="1" page="1" pageScale="1" pageWidth="1169" pageHeight="827" background="none" math="0" shadow="0">
      <root>
        <mxCell id="0" />
        <mxCell id="1" parent="0" />
        <mxCell id="EohE0CoKyvve6hNgjG_u-23" value="&lt;font color=&quot;#007fff&quot; style=&quot;font-size: 30px;&quot;&gt;UrlExtractor&lt;/font&gt;" style="rounded=1;whiteSpace=wrap;html=1;dashed=1;opacity=30;strokeWidth=2;perimeterSpacing=0;labelPosition=center;verticalLabelPosition=top;align=center;verticalAlign=bottom;strokeColor=#007FFF;" parent="1" vertex="1">
          <mxGeometry x="60" y="280" width="1050" height="370" as="geometry" />
        </mxCell>
        <mxCell id="EohE0CoKyvve6hNgjG_u-1" value="&lt;font color=&quot;#007fff&quot; style=&quot;font-size: 25px;&quot;&gt;url_extractors&lt;/font&gt;" style="rounded=1;whiteSpace=wrap;html=1;labelPosition=center;verticalLabelPosition=top;align=center;verticalAlign=bottom;" parent="1" vertex="1">
          <mxGeometry x="130" y="330" width="280" height="280" as="geometry" />
        </mxCell>
        <mxCell id="EohE0CoKyvve6hNgjG_u-2" value="&lt;font style=&quot;font-size: 20px;&quot;&gt;xpath_extractor&lt;/font&gt;" style="rounded=1;whiteSpace=wrap;html=1;" parent="1" vertex="1">
          <mxGeometry x="165" y="360" width="210" height="60" as="geometry" />
        </mxCell>
        <mxCell id="EohE0CoKyvve6hNgjG_u-3" value="&lt;font style=&quot;font-size: 20px;&quot;&gt;jpath_extractor&lt;/font&gt;" style="rounded=1;whiteSpace=wrap;html=1;" parent="1" vertex="1">
          <mxGeometry x="165" y="440" width="210" height="60" as="geometry" />
        </mxCell>
        <mxCell id="EohE0CoKyvve6hNgjG_u-5" value="&lt;font style=&quot;font-size: 20px;&quot;&gt;regex_extractor&lt;/font&gt;" style="rounded=1;whiteSpace=wrap;html=1;" parent="1" vertex="1">
          <mxGeometry x="165" y="520" width="210" height="60" as="geometry" />
        </mxCell>
        <mxCell id="EohE0CoKyvve6hNgjG_u-6" value="&lt;font color=&quot;#007fff&quot; style=&quot;font-size: 25px;&quot;&gt;url_processors&lt;/font&gt;" style="rounded=1;whiteSpace=wrap;html=1;verticalAlign=bottom;labelPosition=center;verticalLabelPosition=top;align=center;" parent="1" vertex="1">
          <mxGeometry x="530" y="395" width="520" height="150" as="geometry" />
        </mxCell>
        <mxCell id="EohE0CoKyvve6hNgjG_u-7" value="&lt;font style=&quot;font-size: 20px;&quot;&gt;processorA&lt;/font&gt;" style="rounded=1;whiteSpace=wrap;html=1;" parent="1" vertex="1">
          <mxGeometry x="572.5" y="435" width="125" height="70" as="geometry" />
        </mxCell>
        <mxCell id="EohE0CoKyvve6hNgjG_u-8" value="&lt;font style=&quot;font-size: 20px;&quot;&gt;processorB&lt;/font&gt;" style="rounded=1;whiteSpace=wrap;html=1;" parent="1" vertex="1">
          <mxGeometry x="727.5" y="435" width="125" height="70" as="geometry" />
        </mxCell>
        <mxCell id="EohE0CoKyvve6hNgjG_u-9" value="&lt;font style=&quot;font-size: 20px;&quot;&gt;processorC&lt;/font&gt;" style="rounded=1;whiteSpace=wrap;html=1;" parent="1" vertex="1">
          <mxGeometry x="887.5" y="435" width="125" height="70" as="geometry" />
        </mxCell>
        <mxCell id="EohE0CoKyvve6hNgjG_u-10" value="&lt;font color=&quot;#00ff00&quot; style=&quot;font-size: 20px;&quot;&gt;text&lt;/font&gt;" style="whiteSpace=wrap;html=1;shape=mxgraph.basic.document;rounded=1;" parent="1" vertex="1">
          <mxGeometry x="220" y="70" width="100" height="100" as="geometry" />
        </mxCell>
        <mxCell id="EohE0CoKyvve6hNgjG_u-11" value="" style="endArrow=classic;html=1;rounded=1;exitX=0.5;exitY=1;exitDx=0;exitDy=0;exitPerimeter=0;entryX=0.5;entryY=0;entryDx=0;entryDy=0;fontSize=13;" parent="1" source="EohE0CoKyvve6hNgjG_u-10" target="EohE0CoKyvve6hNgjG_u-1" edge="1">
          <mxGeometry relative="1" as="geometry">
            <mxPoint x="520" y="420" as="sourcePoint" />
            <mxPoint x="620" y="420" as="targetPoint" />
          </mxGeometry>
        </mxCell>
        <mxCell id="EohE0CoKyvve6hNgjG_u-12" value="&lt;font color=&quot;#ff6666&quot; style=&quot;font-size: 17px;&quot;&gt;url_extract_exps&lt;/font&gt;" style="edgeLabel;resizable=0;html=1;align=center;verticalAlign=middle;rounded=1;" parent="EohE0CoKyvve6hNgjG_u-11" connectable="0" vertex="1">
          <mxGeometry relative="1" as="geometry" />
        </mxCell>
        <mxCell id="EohE0CoKyvve6hNgjG_u-15" value="" style="endArrow=classic;html=1;rounded=1;exitX=1;exitY=0.5;exitDx=0;exitDy=0;entryX=0;entryY=0.5;entryDx=0;entryDy=0;" parent="1" source="EohE0CoKyvve6hNgjG_u-7" target="EohE0CoKyvve6hNgjG_u-8" edge="1">
          <mxGeometry width="50" height="50" relative="1" as="geometry">
            <mxPoint x="680" y="330" as="sourcePoint" />
            <mxPoint x="730" y="280" as="targetPoint" />
          </mxGeometry>
        </mxCell>
        <mxCell id="EohE0CoKyvve6hNgjG_u-16" value="" style="endArrow=classic;html=1;rounded=1;exitX=1;exitY=0.5;exitDx=0;exitDy=0;entryX=0;entryY=0.5;entryDx=0;entryDy=0;" parent="1" source="EohE0CoKyvve6hNgjG_u-8" target="EohE0CoKyvve6hNgjG_u-9" edge="1">
          <mxGeometry width="50" height="50" relative="1" as="geometry">
            <mxPoint x="850" y="340" as="sourcePoint" />
            <mxPoint x="900" y="290" as="targetPoint" />
          </mxGeometry>
        </mxCell>
        <mxCell id="EohE0CoKyvve6hNgjG_u-17" value="" style="endArrow=classic;html=1;rounded=1;exitX=1;exitY=0.5;exitDx=0;exitDy=0;entryX=0;entryY=0.5;entryDx=0;entryDy=0;fontSize=15;" parent="1" source="EohE0CoKyvve6hNgjG_u-1" target="EohE0CoKyvve6hNgjG_u-6" edge="1">
          <mxGeometry relative="1" as="geometry">
            <mxPoint x="500" y="320" as="sourcePoint" />
            <mxPoint x="600" y="320" as="targetPoint" />
          </mxGeometry>
        </mxCell>
        <mxCell id="EohE0CoKyvve6hNgjG_u-18" value="&lt;font color=&quot;#00ff00&quot;&gt;URLs&lt;/font&gt;" style="edgeLabel;resizable=0;html=1;align=center;verticalAlign=middle;rounded=1;" parent="EohE0CoKyvve6hNgjG_u-17" connectable="0" vertex="1">
          <mxGeometry relative="1" as="geometry" />
        </mxCell>
        <mxCell id="EohE0CoKyvve6hNgjG_u-20" value="&lt;font color=&quot;#00ff00&quot; style=&quot;font-size: 20px;&quot;&gt;URLs&lt;/font&gt;" style="rounded=1;whiteSpace=wrap;html=1;" parent="1" vertex="1">
          <mxGeometry x="719.5" y="700" width="141" height="40" as="geometry" />
        </mxCell>
        <mxCell id="EohE0CoKyvve6hNgjG_u-21" value="" style="endArrow=classic;html=1;rounded=1;exitX=0.5;exitY=1;exitDx=0;exitDy=0;entryX=0.5;entryY=0;entryDx=0;entryDy=0;" parent="1" source="EohE0CoKyvve6hNgjG_u-6" target="EohE0CoKyvve6hNgjG_u-20" edge="1">
          <mxGeometry width="50" height="50" relative="1" as="geometry">
            <mxPoint x="530" y="680" as="sourcePoint" />
            <mxPoint x="580" y="630" as="targetPoint" />
          </mxGeometry>
        </mxCell>
      </root>
    </mxGraphModel>
  </diagram>
</mxfile>
